<svg xmlns="http://www.w3.org/2000/svg" width="14.296" height="14" viewBox="0 0 14.296 14">
  <path id="Permotions" d="M7.147,4.417a2.135,2.135,0,0,0-1.186.359L.955,8.11A2.143,2.143,0,0,0,0,9.892v6.382a2.156,2.156,0,0,0,2.147,2.142h10A2.157,2.157,0,0,0,14.3,16.275V9.892A2.145,2.145,0,0,0,13.34,8.11l-5-3.334a2.14,2.14,0,0,0-1.188-.359Zm4.188,5.422a.721.721,0,0,1,.5,1.313l-4.288,2.86a.715.715,0,0,1-.791,0l-4.289-2.86a.715.715,0,0,1,.791-1.192l3.893,2.6,3.894-2.6a.772.772,0,0,1,.294-.121Z" transform="translate(0 -4.417)" fill="#f72585"/>
</svg>
