<svg width="21" height="21" viewBox="0 0 21 21" fill="none" xmlns="http://www.w3.org/2000/svg">
<path fill-rule="evenodd" clip-rule="evenodd" d="M0.352135 6.1687C-0.215348 7.3524 -0.0161417 8.73684 0.38227 11.5058L0.674979 13.54C1.18676 17.0968 1.44265 18.8752 2.67648 19.9376C3.91029 21 5.71974 21 9.33859 21H11.6614C15.2802 21 17.0897 21 18.3235 19.9376C19.5573 18.8752 19.8132 17.0968 20.3251 13.54L20.6177 11.5058C21.0162 8.73684 21.2154 7.3524 20.6478 6.1687C20.0804 4.98498 18.8725 4.26546 16.4568 2.8264L15.0026 1.96021C12.8089 0.653404 11.712 0 10.5 0C9.28798 0 8.19109 0.653404 5.99733 1.96021L4.54325 2.8264C2.1275 4.26546 0.919619 4.98498 0.352135 6.1687ZM10.5 17.5875C10.0651 17.5875 9.7125 17.2349 9.7125 16.8V13.65C9.7125 13.2151 10.0651 12.8625 10.5 12.8625C10.9349 12.8625 11.2875 13.2151 11.2875 13.65V16.8C11.2875 17.2349 10.9349 17.5875 10.5 17.5875Z" fill="#F53BA9"/>
</svg>
