<svg width="25" height="25" viewBox="0 0 25 25" fill="none" xmlns="http://www.w3.org/2000/svg">
<path d="M1.39246 13.6482L1.39247 13.6482L1.68517 15.6824L1.68517 15.6824L1.69484 15.7496C1.94249 17.4709 2.1419 18.857 2.44103 19.9404C2.75171 21.0656 3.20005 21.9859 4.02398 22.6954C4.84709 23.4041 5.82579 23.7136 6.98871 23.8594C8.10996 24 9.51902 24 11.2713 24H11.3386H13.6614H13.7287C15.481 24 16.89 24 18.0113 23.8594C19.1742 23.7136 20.1529 23.4041 20.976 22.6954L20.9761 22.6954C21.8 21.9859 22.2483 21.0656 22.5589 19.9404C22.858 18.8571 23.0575 17.4712 23.3051 15.7501L23.3149 15.6824L23.3149 15.6824L23.6075 13.6482L23.6075 13.6482L23.6154 13.5931C23.8079 12.2556 23.9639 11.1719 23.9944 10.2769C24.0262 9.34485 23.9278 8.52529 23.5495 7.73637C23.1716 6.94792 22.5938 6.35635 21.8466 5.7942C21.1284 5.25391 20.1838 4.69118 19.0167 3.996L18.9685 3.96728L18.9685 3.96727L17.5144 3.1011L17.5144 3.10108L17.4708 3.07512C16.4112 2.44387 15.5521 1.93206 14.8061 1.5839C14.0295 1.2214 13.3032 1 12.5 1C11.6968 1 10.9705 1.2214 10.1939 1.5839C9.44805 1.93201 8.58906 2.44373 7.5296 3.07486L7.48556 3.10109L6.03148 3.96728L6.48871 4.73484L6.03148 3.96728L5.98348 3.99587C4.81633 4.69112 3.8716 5.25387 3.1534 5.7942C2.40616 6.35637 1.82839 6.94795 1.45041 7.7364C1.07219 8.52531 0.973773 9.34487 1.00557 10.2769C1.03611 11.1718 1.19203 12.2553 1.38445 13.5925L1.39246 13.6482Z" stroke="#474747" stroke-width="2"/>
</svg>
