<svg width="27" height="27" viewBox="0 0 27 27" fill="none" xmlns="http://www.w3.org/2000/svg">
<circle cx="13.5" cy="13.5" r="13.5" fill="white"/>
<path d="M13.0677 9.66648L13.5 10.1156L13.9323 9.66648C15.2412 8.30659 16.5986 8.1965 17.5974 8.65303C18.634 9.12685 19.4 10.2581 19.4 11.6141C19.4 13.0073 18.8314 14.0827 18.006 15.0121C17.3232 15.781 16.4977 16.4175 15.6831 17.0456C15.4886 17.1956 15.2947 17.3451 15.1034 17.4959C14.7605 17.7662 14.4615 17.9978 14.1754 18.165C13.8891 18.3323 13.6727 18.4 13.5 18.4C13.3273 18.4 13.1109 18.3323 12.8246 18.165C12.5385 17.9978 12.2395 17.7662 11.8966 17.4959C11.7054 17.3451 11.5114 17.1956 11.3169 17.0456C10.5023 16.4175 9.67685 15.781 8.994 15.0121C8.16864 14.0827 7.6 13.0073 7.6 11.6141C7.6 10.2581 8.36604 9.12685 9.4026 8.65303C10.4013 8.1965 11.7588 8.30659 13.0677 9.66648Z" stroke="#F53BA9" stroke-width="1.2"/>
</svg>
