<svg width="26" height="22" viewBox="0 0 26 22" fill="none" xmlns="http://www.w3.org/2000/svg">
<path d="M12.059 3.52504L12.7795 4.27361L13.5 3.52504C16.1193 0.803635 18.8683 0.560481 20.9099 1.49372C23.0146 2.45578 24.559 4.74564 24.559 7.4788C24.559 10.274 23.4157 12.4291 21.7729 14.2789C20.4181 15.8045 18.7784 17.0687 17.1757 18.3043C16.7947 18.5981 16.4157 18.8902 16.0432 19.1839C15.3706 19.7141 14.7731 20.1774 14.198 20.5135C13.6226 20.8497 13.1646 21 12.7795 21C12.3944 21 11.9364 20.8497 11.361 20.5135C10.7859 20.1774 10.1884 19.7141 9.51582 19.1839C9.14327 18.8902 8.7643 18.598 8.38324 18.3042C6.78059 17.0686 5.14091 15.8045 3.78604 14.2789C2.1433 12.4291 1 10.274 1 7.4788C1 4.74564 2.54433 2.45577 4.64901 1.49372C6.69065 0.560482 9.43965 0.803634 12.059 3.52504Z" stroke="#474747" stroke-width="2"/>
</svg>
