<svg width="60" height="50" viewBox="0 0 60 50" fill="none" xmlns="http://www.w3.org/2000/svg">
<path d="M6.10742 47.8018V40.3723L53.8923 40.3721V47.8018C53.8923 48.3448 53.452 48.7852 52.9088 48.7852H7.09065C6.54785 48.7852 6.10742 48.3449 6.10742 47.8018Z" stroke="#E72B77" stroke-width="2"/>
<path d="M57.4599 19.0942L56.993 19.3072L56.8938 19.8108C55.8873 24.9216 54.6164 31.8176 54.1149 35.5954H5.8851C5.38362 31.8173 4.11275 24.9213 3.1062 19.8108L3.00702 19.3072L2.54008 19.0942C1.62888 18.6786 1 17.7646 1 16.7109C1 15.2671 2.17609 14.0911 3.6198 14.0911C5.06367 14.0911 6.2396 15.267 6.2396 16.7109C6.2396 17.1777 6.11543 17.6153 5.89804 17.9982L5.52206 18.6605L6.06057 19.199L9.32845 22.4669L10.3756 23.514L10.9556 22.1515C12.0038 19.6895 12.4865 16.0093 12.6151 13.275L12.6424 12.6925L12.1489 12.3818C11.4061 11.9142 10.9174 11.0947 10.9174 10.1655C10.9174 8.72195 12.0935 7.54566 13.5372 7.54566C14.981 7.54566 16.157 8.72191 16.157 10.1655C16.157 10.8142 15.9188 11.4076 15.522 11.8689L15.0584 12.408L15.4153 13.0229C17.584 16.7602 20.5891 20.3229 22.4352 22.3694L23.4345 23.4771L24.0795 22.132C25.7463 18.6561 27.581 11.8671 28.7066 6.64548L28.8364 6.04368L28.3575 5.65684C27.7592 5.17359 27.3802 4.43961 27.3802 3.6202C27.3802 2.17618 28.5563 1 30 1C31.4437 1 32.6198 2.17618 32.6198 3.6202C32.6198 4.43945 32.2407 5.17349 31.6425 5.65716L31.1641 6.04404L31.2938 6.64553C32.4196 11.8668 34.2544 18.6548 35.9202 22.1306L36.5653 23.4764L37.5647 22.368C39.4117 20.3196 42.4182 16.7542 44.5844 13.0231L44.9414 12.4082L44.4779 11.8691C44.0811 11.4076 43.8428 10.814 43.8428 10.1655C43.8428 8.72198 45.019 7.54566 46.4628 7.54566C47.9065 7.54566 49.0826 8.72195 49.0826 10.1655C49.0826 11.0942 48.5942 11.9137 47.8521 12.3811L47.3584 12.6921L47.3862 13.2749C47.5166 16.009 47.9999 19.6891 49.0453 22.1496L49.6248 23.5137L50.6728 22.4657L53.9394 19.199L54.4781 18.6604L54.1018 17.998C53.8844 17.6152 53.7602 17.1777 53.7602 16.7109C53.7602 15.2671 54.9363 14.0911 56.3802 14.0911C57.8239 14.0911 59 15.2671 59 16.7109C59 17.7646 58.3711 18.6786 57.4599 19.0942ZM34.6198 29.802C34.6198 27.2536 32.5484 25.1822 30 25.1822C27.4516 25.1822 25.3802 27.2536 25.3802 29.802C25.3802 32.3505 27.4516 34.4218 30 34.4218C32.5484 34.4218 34.6198 32.3505 34.6198 29.802Z" stroke="#E72B77" stroke-width="2"/>
</svg>
