<svg width="60" height="50" viewBox="0 0 60 50" fill="none" xmlns="http://www.w3.org/2000/svg">
<path d="M5.10742 39.3723V47.8018C5.10742 48.8971 5.9955 49.7852 7.09065 49.7852H52.9088C54.0044 49.7852 54.8923 48.8969 54.8923 47.8018V39.3721L5.10742 39.3723Z" fill="#E72B77"/>
<path d="M54.9986 36.5954C55.3881 33.1556 56.7818 25.5545 57.8749 20.004C59.1265 19.4331 60 18.1735 60 16.7109C60 14.7147 58.3762 13.0911 56.3802 13.0911C54.384 13.0911 52.7602 14.7147 52.7602 16.7109C52.7602 17.3584 52.9331 17.9653 53.2323 18.4919L49.9657 21.7586C48.9915 19.4657 48.5139 15.9303 48.385 13.2273C49.403 12.5861 50.0826 11.455 50.0826 10.1655C50.0826 8.1697 48.4588 6.54566 46.4628 6.54566C44.4667 6.54566 42.8428 8.1697 42.8428 10.1655C42.8428 11.0651 43.1747 11.8873 43.7196 12.521C41.6057 16.162 38.6539 19.6667 36.822 21.6984C35.2119 18.339 33.3968 11.6541 32.2713 6.43475C33.0925 5.77071 33.6198 4.75616 33.6198 3.6202C33.6198 1.62404 31.9962 0 30 0C28.0038 0 26.3802 1.62404 26.3802 3.6202C26.3802 4.75616 26.9073 5.77091 27.7291 6.43475C26.6038 11.6545 24.7887 18.3402 23.1778 21.6996C21.3469 19.6699 18.3966 16.1681 16.2802 12.521C16.8253 11.8873 17.157 11.0651 17.157 10.1655C17.157 8.1697 15.5333 6.54566 13.5372 6.54566C11.5412 6.54566 9.91737 8.1697 9.91737 10.1655C9.91737 11.4558 10.5976 12.5869 11.6162 13.2281C11.4891 15.9309 11.0121 19.4659 10.0356 21.7598L6.76768 18.4919C7.06667 17.9653 7.2396 17.3584 7.2396 16.7109C7.2396 14.7147 5.61596 13.0911 3.6198 13.0911C1.62384 13.0911 0 14.7147 0 16.7109C0 18.1735 0.873535 19.4331 2.12505 20.004C3.21818 25.5541 4.61192 33.1552 5.00141 36.5954H54.9986ZM30 26.1822C31.9962 26.1822 33.6198 27.8059 33.6198 29.802C33.6198 31.7982 31.9962 33.4218 30 33.4218C28.0038 33.4218 26.3802 31.7982 26.3802 29.802C26.3802 27.8059 28.0038 26.1822 30 26.1822Z" fill="#E72B77"/>
</svg>
