<svg width="24" height="22" viewBox="0 0 24 22" fill="none" xmlns="http://www.w3.org/2000/svg">
<path d="M17.9327 2.15824L17.9332 2.1585C18.5817 2.52909 18.8083 3.35982 18.4327 4.01714C17.8185 5.089 17.6599 6.25717 18.2121 7.2114C18.7646 8.16622 19.8572 8.61022 21.0936 8.61022C21.8421 8.61022 22.4602 9.22717 22.4695 9.97897V12.0255C22.4695 12.7769 21.8507 13.3898 21.1052 13.3898C19.8694 13.3898 18.7756 13.8335 18.2244 14.7899C17.6732 15.7465 17.8376 16.916 18.4586 17.9874L19.194 17.5611L18.458 17.9864C18.8295 18.6294 18.606 19.4703 17.9565 19.8415L17.956 19.8418L15.9399 20.9955L15.9337 20.9991L15.9275 21.0027C15.4277 21.3001 14.7561 21.1339 14.4377 20.6031L14.3124 20.3867L14.3122 20.3863C13.6914 19.3153 12.7587 18.5903 11.6554 18.5903C10.5512 18.5903 9.62119 19.3162 9.0061 20.3883C9.00581 20.3888 9.00552 20.3894 9.00523 20.3899L8.88172 20.6032C8.56329 21.1339 7.89173 21.3001 7.39198 21.0027L7.3858 20.9991L7.37956 20.9955L5.36343 19.8418L5.36297 19.8415C4.71507 19.4713 4.48831 18.6418 4.86241 17.9848C5.48214 16.9141 5.6458 15.7457 5.09502 14.7899C4.54387 13.8335 3.45001 13.3898 2.21424 13.3898C1.46293 13.3898 0.85 12.771 0.85 12.0255V9.97446C0.85 9.22315 1.46877 8.61022 2.21424 8.61022C3.44989 8.61022 4.54329 8.16662 5.09458 7.21229C5.64591 6.25789 5.48242 5.09187 4.86192 4.02604C4.48745 3.36726 4.7172 2.52752 5.36297 2.1585L5.36343 2.15824L7.37956 1.0045L7.3858 1.00093L7.39198 0.997255C7.8983 0.696026 8.56044 0.873843 8.85258 1.3867L8.85256 1.38671L8.85555 1.39188L8.98374 1.6133L8.98395 1.61367C9.60473 2.68468 10.5374 3.40966 11.6408 3.40966C12.7449 3.40966 13.6748 2.68389 14.2899 1.61184C14.2903 1.61128 14.2906 1.61071 14.2909 1.61015L14.4144 1.39682C14.7329 0.86611 15.4044 0.699934 15.9042 0.997255L15.9103 1.00093L15.9166 1.0045L17.9327 2.15824ZM7.01638 11C7.01638 13.5555 9.09841 15.6375 11.6539 15.6375C14.2094 15.6375 16.2914 13.5555 16.2914 11C16.2914 8.44451 14.2094 6.36248 11.6539 6.36248C9.09841 6.36248 7.01638 8.44451 7.01638 11Z" stroke="#474747" stroke-width="1.7"/>
</svg>
