<svg width="19" height="22" viewBox="0 0 19 22" fill="none" xmlns="http://www.w3.org/2000/svg">
<path d="M19 19C19 19.5599 18.7776 20.0969 18.3817 20.4928C17.9858 20.8887 17.4488 21.1111 16.8889 21.1111H2.11111C1.55121 21.1111 1.01424 20.8887 0.61833 20.4928C0.22242 20.0969 0 19.5599 0 19C0.0104684 17.0769 0.677031 15.215 1.88944 13.7222C2.22304 13.3142 2.69721 13.0457 3.21873 12.9695C3.74025 12.8933 4.2714 13.015 4.70778 13.3106C6.11985 14.2699 7.7876 14.7828 9.49472 14.7828C11.2018 14.7828 12.8696 14.2699 14.2817 13.3106C14.7189 13.0119 15.2524 12.8885 15.7764 12.9647C16.3004 13.041 16.7766 13.3113 17.1106 13.7222C18.323 15.215 18.9895 17.0769 19 19ZM9.5 12.6667C10.7526 12.6667 11.9771 12.2952 13.0186 11.5993C14.0601 10.9034 14.8719 9.91426 15.3512 8.757C15.8306 7.59973 15.956 6.32631 15.7116 5.09776C15.4673 3.86922 14.8641 2.74073 13.9783 1.85499C13.0926 0.969261 11.9641 0.366069 10.7356 0.121696C9.50703 -0.122677 8.2336 0.00274415 7.07634 0.482099C5.91907 0.961454 4.92994 1.77321 4.23403 2.81473C3.53811 3.85624 3.16667 5.08072 3.16667 6.33334C3.16667 8.01304 3.83393 9.62395 5.02166 10.8117C6.20939 11.9994 7.8203 12.6667 9.5 12.6667Z" fill="#F53BA9"/>
</svg>
