<svg width="19" height="22" viewBox="0 0 19 22" fill="none" xmlns="http://www.w3.org/2000/svg">
<path d="M14.8436 14.9155L14.8457 14.9141C15.0758 14.7569 15.3566 14.6919 15.6324 14.7321C15.908 14.7722 16.1586 14.9144 16.3343 15.1304C17.4025 16.4456 17.9901 18.0858 18 19.7801C17.9994 20.0739 17.8824 20.3556 17.6746 20.5634C17.4662 20.7718 17.1836 20.8889 16.8889 20.8889H2.11111C1.81643 20.8889 1.53381 20.7718 1.32544 20.5634C1.11762 20.3556 1.00063 20.074 1 19.7801C1.00992 18.0865 1.59706 16.4468 2.66453 15.1319C2.84006 14.9177 3.08924 14.7768 3.36326 14.7368C3.63759 14.6967 3.91698 14.7606 4.14658 14.916C5.72426 15.9876 7.5875 16.5606 9.49472 16.5606C11.4023 16.5606 13.2658 15.9874 14.8436 14.9155ZM12.463 11.5456C11.586 12.1316 10.5548 12.4444 9.5 12.4444C8.08551 12.4444 6.72896 11.8825 5.72876 10.8823C4.72857 9.88215 4.16667 8.5256 4.16667 7.11111C4.16667 6.05627 4.47946 5.02513 5.0655 4.14807C5.65153 3.271 6.48448 2.58742 7.45902 2.18375C8.43356 1.78008 9.50592 1.67446 10.5405 1.88025C11.575 2.08604 12.5254 2.59399 13.2712 3.33987C14.0171 4.08575 14.5251 5.03606 14.7309 6.07063C14.9366 7.10519 14.831 8.17755 14.4274 9.15209C14.0237 10.1266 13.3401 10.9596 12.463 11.5456Z" stroke="#474747" stroke-width="2"/>
</svg>
